<svg xmlns="http://www.w3.org/2000/svg" width="624" height="624"><g style="fill: rgb(168, 50 ,68);"><rect x="24" y="0" width="96" height="24" class="row c0-0"></rect><rect x="0" y="24" width="24" height="96" class="col c0-0"></rect><rect x="0" y="0" width="24" height="24" class="corner c0-0"></rect><rect x="144" y="0" width="96" height="24" class="row c0-1"></rect><rect x="120" y="24" width="24" height="96" class="col c0-1" style="opacity: 0.2"></rect><rect x="120" y="0" width="24" height="24" class="corner c0-1"></rect><rect x="264" y="0" width="96" height="24" class="row c0-2"></rect><rect x="240" y="24" width="24" height="96" class="col c0-2"></rect><rect x="240" y="0" width="24" height="24" class="corner c0-2"></rect><rect x="384" y="0" width="96" height="24" class="row c0-3"></rect><rect x="360" y="24" width="24" height="96" class="col c0-3" style="opacity: 0.2"></rect><rect x="360" y="0" width="24" height="24" class="corner c0-3"></rect><rect x="504" y="0" width="96" height="24" class="row c0-4"></rect><rect x="480" y="24" width="24" height="96" class="col c0-4" style="opacity: 0.2"></rect><rect x="480" y="0" width="24" height="24" class="corner c0-4"></rect><rect x="624" y="0" width="96" height="24" class="row hide c0-5"></rect><rect x="600" y="24" width="24" height="96" class="col c0-5"></rect><rect x="600" y="0" width="24" height="24" class="corner c0-5"></rect><rect x="24" y="120" width="96" height="24" class="row c1-0" style="opacity: 0.2"></rect><rect x="0" y="144" width="24" height="96" class="col c1-0"></rect><rect x="0" y="120" width="24" height="24" class="corner c1-0"></rect><rect x="144" y="120" width="96" height="24" class="row c1-1" style="opacity: 0.2"></rect><rect x="120" y="144" width="24" height="96" class="col c1-1"></rect><rect x="120" y="120" width="24" height="24" class="corner c1-1"></rect><rect x="264" y="120" width="96" height="24" class="row c1-2" style="opacity: 0.2"></rect><rect x="240" y="144" width="24" height="96" class="col c1-2"></rect><rect x="240" y="120" width="24" height="24" class="corner c1-2"></rect><rect x="384" y="120" width="96" height="24" class="row c1-3"></rect><rect x="360" y="144" width="24" height="96" class="col c1-3" style="opacity: 0.2"></rect><rect x="360" y="120" width="24" height="24" class="corner c1-3"></rect><rect x="504" y="120" width="96" height="24" class="row c1-4"></rect><rect x="480" y="144" width="24" height="96" class="col c1-4"></rect><rect x="480" y="120" width="24" height="24" class="corner c1-4"></rect><rect x="624" y="120" width="96" height="24" class="row hide c1-5"></rect><rect x="600" y="144" width="24" height="96" class="col c1-5"></rect><rect x="600" y="120" width="24" height="24" class="corner c1-5"></rect><rect x="24" y="240" width="96" height="24" class="row c2-0"></rect><rect x="0" y="264" width="24" height="96" class="col c2-0"></rect><rect x="0" y="240" width="24" height="24" class="corner c2-0"></rect><rect x="144" y="240" width="96" height="24" class="row c2-1" style="opacity: 0.2"></rect><rect x="120" y="264" width="24" height="96" class="col c2-1" style="opacity: 0.2"></rect><rect x="120" y="240" width="24" height="24" class="corner c2-1"></rect><rect x="264" y="240" width="96" height="24" class="row c2-2"></rect><rect x="240" y="264" width="24" height="96" class="col c2-2" style="opacity: 0.2"></rect><rect x="240" y="240" width="24" height="24" class="corner c2-2"></rect><rect x="384" y="240" width="96" height="24" class="row c2-3" style="opacity: 0.2"></rect><rect x="360" y="264" width="24" height="96" class="col c2-3"></rect><rect x="360" y="240" width="24" height="24" class="corner c2-3"></rect><rect x="504" y="240" width="96" height="24" class="row c2-4" style="opacity: 0.2"></rect><rect x="480" y="264" width="24" height="96" class="col c2-4"></rect><rect x="480" y="240" width="24" height="24" class="corner c2-4"></rect><rect x="624" y="240" width="96" height="24" class="row hide c2-5"></rect><rect x="600" y="264" width="24" height="96" class="col c2-5"></rect><rect x="600" y="240" width="24" height="24" class="corner c2-5"></rect><rect x="24" y="360" width="96" height="24" class="row c3-0" style="opacity: 0.2"></rect><rect x="0" y="384" width="24" height="96" class="col c3-0"></rect><rect x="0" y="360" width="24" height="24" class="corner c3-0"></rect><rect x="144" y="360" width="96" height="24" class="row c3-1"></rect><rect x="120" y="384" width="24" height="96" class="col c3-1" style="opacity: 0.2"></rect><rect x="120" y="360" width="24" height="24" class="corner c3-1"></rect><rect x="264" y="360" width="96" height="24" class="row c3-2"></rect><rect x="240" y="384" width="24" height="96" class="col c3-2" style="opacity: 0.2"></rect><rect x="240" y="360" width="24" height="24" class="corner c3-2"></rect><rect x="384" y="360" width="96" height="24" class="row c3-3" style="opacity: 0.2"></rect><rect x="360" y="384" width="24" height="96" class="col c3-3"></rect><rect x="360" y="360" width="24" height="24" class="corner c3-3"></rect><rect x="504" y="360" width="96" height="24" class="row c3-4" style="opacity: 0.2"></rect><rect x="480" y="384" width="24" height="96" class="col c3-4"></rect><rect x="480" y="360" width="24" height="24" class="corner c3-4"></rect><rect x="624" y="360" width="96" height="24" class="row hide c3-5"></rect><rect x="600" y="384" width="24" height="96" class="col c3-5"></rect><rect x="600" y="360" width="24" height="24" class="corner c3-5"></rect><rect x="24" y="480" width="96" height="24" class="row c4-0" style="opacity: 0.2"></rect><rect x="0" y="504" width="24" height="96" class="col c4-0"></rect><rect x="0" y="480" width="24" height="24" class="corner c4-0"></rect><rect x="144" y="480" width="96" height="24" class="row c4-1"></rect><rect x="120" y="504" width="24" height="96" class="col c4-1" style="opacity: 0.2"></rect><rect x="120" y="480" width="24" height="24" class="corner c4-1"></rect><rect x="264" y="480" width="96" height="24" class="row c4-2" style="opacity: 0.2"></rect><rect x="240" y="504" width="24" height="96" class="col c4-2"></rect><rect x="240" y="480" width="24" height="24" class="corner c4-2"></rect><rect x="384" y="480" width="96" height="24" class="row c4-3" style="opacity: 0.2"></rect><rect x="360" y="504" width="24" height="96" class="col c4-3" style="opacity: 0.2"></rect><rect x="360" y="480" width="24" height="24" class="corner c4-3"></rect><rect x="504" y="480" width="96" height="24" class="row c4-4" style="opacity: 0.2"></rect><rect x="480" y="504" width="24" height="96" class="col c4-4" style="opacity: 0.2"></rect><rect x="480" y="480" width="24" height="24" class="corner c4-4"></rect><rect x="624" y="480" width="96" height="24" class="row hide c4-5"></rect><rect x="600" y="504" width="24" height="96" class="col c4-5"></rect><rect x="600" y="480" width="24" height="24" class="corner c4-5"></rect><rect x="24" y="600" width="96" height="24" class="row c5-0"></rect><rect x="0" y="624" width="24" height="96" class="col hide c5-0"></rect><rect x="0" y="600" width="24" height="24" class="corner c5-0"></rect><rect x="144" y="600" width="96" height="24" class="row c5-1"></rect><rect x="120" y="624" width="24" height="96" class="col hide c5-1"></rect><rect x="120" y="600" width="24" height="24" class="corner c5-1"></rect><rect x="264" y="600" width="96" height="24" class="row c5-2"></rect><rect x="240" y="624" width="24" height="96" class="col hide c5-2"></rect><rect x="240" y="600" width="24" height="24" class="corner c5-2"></rect><rect x="384" y="600" width="96" height="24" class="row c5-3"></rect><rect x="360" y="624" width="24" height="96" class="col hide c5-3"></rect><rect x="360" y="600" width="24" height="24" class="corner c5-3"></rect><rect x="504" y="600" width="96" height="24" class="row c5-4"></rect><rect x="480" y="624" width="24" height="96" class="col hide c5-4"></rect><rect x="480" y="600" width="24" height="24" class="corner c5-4"></rect><rect x="624" y="600" width="96" height="24" class="row hide c5-5"></rect><rect x="600" y="624" width="24" height="96" class="col hide c5-5"></rect><rect x="600" y="600" width="24" height="24" class="corner c5-5"></rect></g><g style="fill: rgb(50, 168, 82);"><circle cx="72" cy="72" r="18" class="center"></circle><rect x="72" y="66" width="120" height="12" class="path c0-0"></rect><circle cx="192" cy="72" r="18" class="center"></circle><circle cx="312" cy="72" r="18" class="center"></circle><rect x="312" y="66" width="120" height="12" class="path c0-0"></rect><circle cx="432" cy="72" r="18" class="center"></circle><rect x="432" y="66" width="120" height="12" class="path c0-0"></rect><circle cx="552" cy="72" r="18" class="center"></circle><circle cx="72" cy="192" r="18" class="center"></circle><rect x="66" y="72" width="12" height="120" class="path c0-0"></rect><circle cx="192" cy="192" r="18" class="center"></circle><rect x="186" y="72" width="12" height="120" class="path c0-0"></rect><circle cx="312" cy="192" r="18" class="center"></circle><rect x="306" y="72" width="12" height="120" class="path c0-0"></rect><rect x="312" y="186" width="120" height="12" class="path c0-0"></rect><circle cx="432" cy="192" r="18" class="center"></circle><circle cx="552" cy="192" r="18" class="center"></circle><circle cx="72" cy="312" r="18" class="center"></circle><rect x="72" y="306" width="120" height="12" class="path c0-0"></rect><circle cx="192" cy="312" r="18" class="center"></circle><rect x="186" y="192" width="12" height="120" class="path c0-0"></rect><rect x="192" y="306" width="120" height="12" class="path c0-0"></rect><circle cx="312" cy="312" r="18" class="center"></circle><circle cx="432" cy="312" r="18" class="center"></circle><rect x="426" y="192" width="12" height="120" class="path c0-0"></rect><circle cx="552" cy="312" r="18" class="center"></circle><rect x="546" y="192" width="12" height="120" class="path c0-0"></rect><circle cx="72" cy="432" r="18" class="center"></circle><rect x="66" y="312" width="12" height="120" class="path c0-0"></rect><rect x="72" y="426" width="120" height="12" class="path c0-0"></rect><circle cx="192" cy="432" r="18" class="center"></circle><rect x="192" y="426" width="120" height="12" class="path c0-0"></rect><circle cx="312" cy="432" r="18" class="center"></circle><circle cx="432" cy="432" r="18" class="center"></circle><rect x="426" y="312" width="12" height="120" class="path c0-0"></rect><circle cx="552" cy="432" r="18" class="center"></circle><rect x="546" y="312" width="12" height="120" class="path c0-0"></rect><circle cx="72" cy="552" r="18" class="center"></circle><rect x="66" y="432" width="12" height="120" class="path c0-0"></rect><rect x="72" y="546" width="120" height="12" class="path c0-0"></rect><circle cx="192" cy="552" r="18" class="center"></circle><circle cx="312" cy="552" r="18" class="center"></circle><rect x="306" y="432" width="12" height="120" class="path c0-0"></rect><rect x="312" y="546" width="120" height="12" class="path c0-0"></rect><circle cx="432" cy="552" r="18" class="center"></circle><rect x="426" y="432" width="12" height="120" class="path c0-0"></rect><rect x="432" y="546" width="120" height="12" class="path c0-0"></rect><circle cx="552" cy="552" r="18" class="center"></circle><rect x="546" y="432" width="12" height="120" class="path c0-0"></rect></g></svg>
