<svg xmlns="http://www.w3.org/2000/svg" width="1040" height="640"><g style="fill: rgb(168, 50 ,68);"><rect x="40" y="0" width="160" height="40" class="row c0-0"></rect><rect x="0" y="40" width="40" height="160" class="col c0-0"></rect><rect x="0" y="0" width="40" height="40" class="corner c0-0"></rect><rect x="240" y="0" width="160" height="40" class="row c0-1"></rect><rect x="200" y="40" width="40" height="160" class="col c0-1" style="opacity: 0.2"></rect><rect x="200" y="0" width="40" height="40" class="corner c0-1"></rect><rect x="440" y="0" width="160" height="40" class="row c0-2"></rect><rect x="400" y="40" width="40" height="160" class="col c0-2" style="opacity: 0.2"></rect><rect x="400" y="0" width="40" height="40" class="corner c0-2"></rect><rect x="640" y="0" width="160" height="40" class="row c0-3"></rect><rect x="600" y="40" width="40" height="160" class="col c0-3" style="opacity: 0.2"></rect><rect x="600" y="0" width="40" height="40" class="corner c0-3"></rect><rect x="840" y="0" width="160" height="40" class="row c0-4"></rect><rect x="800" y="40" width="40" height="160" class="col c0-4"></rect><rect x="800" y="0" width="40" height="40" class="corner c0-4"></rect><rect x="1040" y="0" width="160" height="40" class="row hide c0-5"></rect><rect x="1000" y="40" width="40" height="160" class="col c0-5"></rect><rect x="1000" y="0" width="40" height="40" class="corner c0-5"></rect><rect x="40" y="200" width="160" height="40" class="row c1-0"></rect><rect x="0" y="240" width="40" height="160" class="col c1-0"></rect><rect x="0" y="200" width="40" height="40" class="corner c1-0"></rect><rect x="240" y="200" width="160" height="40" class="row c1-1"></rect><rect x="200" y="240" width="40" height="160" class="col c1-1"></rect><rect x="200" y="200" width="40" height="40" class="corner c1-1"></rect><rect x="440" y="200" width="160" height="40" class="row c1-2" style="opacity: 0.2"></rect><rect x="400" y="240" width="40" height="160" class="col c1-2" style="opacity: 0.2"></rect><rect x="400" y="200" width="40" height="40" class="corner c1-2"></rect><rect x="640" y="200" width="160" height="40" class="row c1-3"></rect><rect x="600" y="240" width="40" height="160" class="col c1-3" style="opacity: 0.2"></rect><rect x="600" y="200" width="40" height="40" class="corner c1-3"></rect><rect x="840" y="200" width="160" height="40" class="row c1-4" style="opacity: 0.2"></rect><rect x="800" y="240" width="40" height="160" class="col c1-4" style="opacity: 0.2"></rect><rect x="800" y="200" width="40" height="40" class="corner c1-4"></rect><rect x="1040" y="200" width="160" height="40" class="row hide c1-5"></rect><rect x="1000" y="240" width="40" height="160" class="col c1-5"></rect><rect x="1000" y="200" width="40" height="40" class="corner c1-5"></rect><rect x="40" y="400" width="160" height="40" class="row c2-0" style="opacity: 0.2"></rect><rect x="0" y="440" width="40" height="160" class="col c2-0"></rect><rect x="0" y="400" width="40" height="40" class="corner c2-0"></rect><rect x="240" y="400" width="160" height="40" class="row c2-1"></rect><rect x="200" y="440" width="40" height="160" class="col c2-1" style="opacity: 0.2"></rect><rect x="200" y="400" width="40" height="40" class="corner c2-1"></rect><rect x="440" y="400" width="160" height="40" class="row c2-2" style="opacity: 0.2"></rect><rect x="400" y="440" width="40" height="160" class="col c2-2" style="opacity: 0.2"></rect><rect x="400" y="400" width="40" height="40" class="corner c2-2"></rect><rect x="640" y="400" width="160" height="40" class="row c2-3"></rect><rect x="600" y="440" width="40" height="160" class="col c2-3"></rect><rect x="600" y="400" width="40" height="40" class="corner c2-3"></rect><rect x="840" y="400" width="160" height="40" class="row c2-4" style="opacity: 0.2"></rect><rect x="800" y="440" width="40" height="160" class="col c2-4" style="opacity: 0.2"></rect><rect x="800" y="400" width="40" height="40" class="corner c2-4"></rect><rect x="1040" y="400" width="160" height="40" class="row hide c2-5"></rect><rect x="1000" y="440" width="40" height="160" class="col c2-5"></rect><rect x="1000" y="400" width="40" height="40" class="corner c2-5"></rect><rect x="40" y="600" width="160" height="40" class="row c3-0"></rect><rect x="0" y="640" width="40" height="160" class="col hide c3-0"></rect><rect x="0" y="600" width="40" height="40" class="corner c3-0"></rect><rect x="240" y="600" width="160" height="40" class="row c3-1"></rect><rect x="200" y="640" width="40" height="160" class="col hide c3-1"></rect><rect x="200" y="600" width="40" height="40" class="corner c3-1"></rect><rect x="440" y="600" width="160" height="40" class="row c3-2"></rect><rect x="400" y="640" width="40" height="160" class="col hide c3-2"></rect><rect x="400" y="600" width="40" height="40" class="corner c3-2"></rect><rect x="640" y="600" width="160" height="40" class="row c3-3"></rect><rect x="600" y="640" width="40" height="160" class="col hide c3-3"></rect><rect x="600" y="600" width="40" height="40" class="corner c3-3"></rect><rect x="840" y="600" width="160" height="40" class="row c3-4"></rect><rect x="800" y="640" width="40" height="160" class="col hide c3-4"></rect><rect x="800" y="600" width="40" height="40" class="corner c3-4"></rect><rect x="1040" y="600" width="160" height="40" class="row hide c3-5"></rect><rect x="1000" y="640" width="40" height="160" class="col hide c3-5"></rect><rect x="1000" y="600" width="40" height="40" class="corner c3-5"></rect></g><g style="fill: rgb(50, 168, 82);"><circle cx="120" cy="120" r="30" class="center"></circle><rect x="120" y="110" width="200" height="20" class="path c0-0"></rect><circle cx="320" cy="120" r="30" class="center"></circle><rect x="320" y="110" width="200" height="20" class="path c0-0"></rect><circle cx="520" cy="120" r="30" class="center"></circle><rect x="520" y="110" width="200" height="20" class="path c0-0"></rect><circle cx="720" cy="120" r="30" class="center"></circle><circle cx="920" cy="120" r="30" class="center"></circle><circle cx="120" cy="320" r="30" class="center"></circle><circle cx="320" cy="320" r="30" class="center"></circle><rect x="320" y="310" width="200" height="20" class="path c0-0"></rect><circle cx="520" cy="320" r="30" class="center"></circle><rect x="510" y="120" width="20" height="200" class="path c0-0"></rect><rect x="520" y="310" width="200" height="20" class="path c0-0"></rect><circle cx="720" cy="320" r="30" class="center"></circle><rect x="720" y="310" width="200" height="20" class="path c0-0"></rect><circle cx="920" cy="320" r="30" class="center"></circle><rect x="910" y="120" width="20" height="200" class="path c0-0"></rect><circle cx="120" cy="520" r="30" class="center"></circle><rect x="110" y="320" width="20" height="200" class="path c0-0"></rect><rect x="120" y="510" width="200" height="20" class="path c0-0"></rect><circle cx="320" cy="520" r="30" class="center"></circle><rect x="320" y="510" width="200" height="20" class="path c0-0"></rect><circle cx="520" cy="520" r="30" class="center"></circle><rect x="510" y="320" width="20" height="200" class="path c0-0"></rect><circle cx="720" cy="520" r="30" class="center"></circle><rect x="720" y="510" width="200" height="20" class="path c0-0"></rect><circle cx="920" cy="520" r="30" class="center"></circle><rect x="910" y="320" width="20" height="200" class="path c0-0"></rect></g></svg>
