<svg xmlns="http://www.w3.org/2000/svg" width="350" height="305"><g style="fill: rgb(168, 50 ,68);"><rect x="20" y="0" width="90" height="20" class="row c0-0"></rect><rect x="0" y="20" width="20" height="75" class="col c0-0"></rect><rect x="0" y="0" width="20" height="20" class="corner c0-0"></rect><rect x="130" y="0" width="90" height="20" class="row c0-1"></rect><rect x="110" y="20" width="20" height="75" class="col c0-1" style="opacity: 0.2"></rect><rect x="110" y="0" width="20" height="20" class="corner c0-1"></rect><rect x="240" y="0" width="90" height="20" class="row c0-2"></rect><rect x="220" y="20" width="20" height="75" class="col c0-2" style="opacity: 0.2"></rect><rect x="220" y="0" width="20" height="20" class="corner c0-2"></rect><rect x="350" y="0" width="90" height="20" class="row hide c0-3"></rect><rect x="330" y="20" width="20" height="75" class="col c0-3"></rect><rect x="330" y="0" width="20" height="20" class="corner c0-3"></rect><rect x="20" y="95" width="90" height="20" class="row c1-0"></rect><rect x="0" y="115" width="20" height="75" class="col c1-0"></rect><rect x="0" y="95" width="20" height="20" class="corner c1-0"></rect><rect x="130" y="95" width="90" height="20" class="row c1-1"></rect><rect x="110" y="115" width="20" height="75" class="col c1-1"></rect><rect x="110" y="95" width="20" height="20" class="corner c1-1"></rect><rect x="240" y="95" width="90" height="20" class="row c1-2" style="opacity: 0.2"></rect><rect x="220" y="115" width="20" height="75" class="col c1-2" style="opacity: 0.2"></rect><rect x="220" y="95" width="20" height="20" class="corner c1-2"></rect><rect x="350" y="95" width="90" height="20" class="row hide c1-3"></rect><rect x="330" y="115" width="20" height="75" class="col c1-3"></rect><rect x="330" y="95" width="20" height="20" class="corner c1-3"></rect><rect x="20" y="190" width="90" height="20" class="row c2-0" style="opacity: 0.2"></rect><rect x="0" y="210" width="20" height="75" class="col c2-0"></rect><rect x="0" y="190" width="20" height="20" class="corner c2-0"></rect><rect x="130" y="190" width="90" height="20" class="row c2-1"></rect><rect x="110" y="210" width="20" height="75" class="col c2-1" style="opacity: 0.2"></rect><rect x="110" y="190" width="20" height="20" class="corner c2-1"></rect><rect x="240" y="190" width="90" height="20" class="row c2-2" style="opacity: 0.2"></rect><rect x="220" y="210" width="20" height="75" class="col c2-2" style="opacity: 0.2"></rect><rect x="220" y="190" width="20" height="20" class="corner c2-2"></rect><rect x="350" y="190" width="90" height="20" class="row hide c2-3"></rect><rect x="330" y="210" width="20" height="75" class="col c2-3"></rect><rect x="330" y="190" width="20" height="20" class="corner c2-3"></rect><rect x="20" y="285" width="90" height="20" class="row c3-0"></rect><rect x="0" y="305" width="20" height="75" class="col hide c3-0"></rect><rect x="0" y="285" width="20" height="20" class="corner c3-0"></rect><rect x="130" y="285" width="90" height="20" class="row c3-1"></rect><rect x="110" y="305" width="20" height="75" class="col hide c3-1"></rect><rect x="110" y="285" width="20" height="20" class="corner c3-1"></rect><rect x="240" y="285" width="90" height="20" class="row c3-2"></rect><rect x="220" y="305" width="20" height="75" class="col hide c3-2"></rect><rect x="220" y="285" width="20" height="20" class="corner c3-2"></rect><rect x="350" y="285" width="90" height="20" class="row hide c3-3"></rect><rect x="330" y="305" width="20" height="75" class="col hide c3-3"></rect><rect x="330" y="285" width="20" height="20" class="corner c3-3"></rect></g><g style="fill: rgb(50, 168, 82);"><rect x="80" y="52.5" width="90" height="10" class="path c0-0"></rect><circle cx="65" cy="57.5" r="15" class="center"></circle><rect x="190" y="52.5" width="90" height="10" class="path c0-0"></rect><circle cx="175" cy="57.5" r="15" class="center"></circle><circle cx="285" cy="57.5" r="15" class="center"></circle><circle cx="65" cy="152.5" r="15" class="center"></circle><rect x="190" y="147.5" width="90" height="10" class="path c0-0"></rect><circle cx="175" cy="152.5" r="15" class="center"></circle><rect x="280" y="72.5" width="10" height="75" class="path c0-0"></rect><circle cx="285" cy="152.5" r="15" class="center"></circle><rect x="60" y="167.5" width="10" height="75" class="path c0-0"></rect><rect x="80" y="242.5" width="90" height="10" class="path c0-0"></rect><circle cx="65" cy="247.5" r="15" class="center"></circle><rect x="190" y="242.5" width="90" height="10" class="path c0-0"></rect><circle cx="175" cy="247.5" r="15" class="center"></circle><rect x="280" y="167.5" width="10" height="75" class="path c0-0"></rect><circle cx="285" cy="247.5" r="15" class="center"></circle></g></svg>
